<svg width="28" height="28" viewBox="0 0 28 28" fill="none" xmlns="http://www.w3.org/2000/svg">
<g clip-path="url(#clip0_2665_57956)">
<path d="M10.5 8.16669C7.00001 8.16669 5.83334 11.6667 5.83334 14.5834C5.83334 18.0834 8.16668 23.3334 10.5 23.3334C11.7693 23.2797 12.4588 22.75 14 22.75C15.5307 22.75 15.75 23.3334 17.5 23.3334C19.25 23.3334 22.1667 19.8334 22.1667 17.5C22.134 17.4884 19.2827 17.0299 19.25 14C19.2278 11.4684 22.0687 10.5537 22.1667 10.5C20.9732 8.75935 18.7238 8.20985 18.0833 8.16669C16.4115 8.03719 14.7817 9.33336 14 9.33336C13.2067 9.33336 11.7833 8.16669 10.5 8.16669Z" fill="white" stroke="white" stroke-linecap="round" stroke-linejoin="round"/>
<path d="M14 4.66665C14.6188 4.66665 15.2123 4.42081 15.6499 3.98323C16.0875 3.54564 16.3333 2.95215 16.3333 2.33331C15.7145 2.33331 15.121 2.57915 14.6834 3.01673C14.2458 3.45432 14 4.04781 14 4.66665" fill="white"/>
<path d="M14 4.66665C14.6188 4.66665 15.2123 4.42081 15.6499 3.98323C16.0875 3.54564 16.3333 2.95215 16.3333 2.33331C15.7145 2.33331 15.121 2.57915 14.6834 3.01673C14.2458 3.45432 14 4.04781 14 4.66665" stroke="white" stroke-linecap="round" stroke-linejoin="round"/>
</g>
<defs>
<clipPath id="clip0_2665_57956">
<rect width="28" height="28" fill="white"/>
</clipPath>
</defs>
</svg>
