<svg width="103" height="33" viewBox="0 0 103 33" fill="none" xmlns="http://www.w3.org/2000/svg">
<path d="M5.91423 31.2557H0V0.000488281H5.91423V31.2557Z" fill="#FFA137"/>
<path d="M49.3337 31.2552L48.7381 28.3084C46.9516 30.9418 44.0218 31.7952 41.2085 31.642C33.7404 31.1485 30.3452 26.1948 30.3452 20.6545C30.3452 14.2742 34.8357 9.67391 42.0778 9.67391C44.4667 9.67391 47.0748 10.7473 48.3617 12.6207V0H54.2758V31.2552H49.3337ZM48.6012 20.7612C48.6492 17.3677 46.3561 14.6942 42.4406 14.6942C38.3335 14.6942 36.3484 17.6811 36.3484 20.6279C36.3258 21.4134 36.4678 22.1952 36.7658 22.9255C37.064 23.6557 37.5118 24.319 38.0819 24.875C38.6521 25.431 39.3327 25.8679 40.0822 26.1591C40.8316 26.4501 41.6341 26.5894 42.4406 26.5683C46.1575 26.5416 48.5875 24.0681 48.5875 20.7612H48.6012Z" fill="#FFA137"/>
<path d="M74.3494 31.2552L73.7539 28.3084C71.9674 30.9418 69.0308 31.7952 66.2241 31.642C58.7492 31.1485 55.3541 26.1948 55.3541 20.6545C55.3541 14.2742 59.8513 9.67391 67.0936 9.67391C69.4757 9.67391 72.0905 10.7473 73.3706 12.6207V0H79.2848V31.2552H74.3494ZM73.617 20.7612C73.658 17.3677 71.3717 14.6942 67.4564 14.6942C63.3492 14.6942 61.3573 17.6811 61.3573 20.6279C61.3386 21.4094 61.4828 22.1867 61.7813 22.9124C62.0798 23.6381 62.5263 24.2973 63.0939 24.8502C63.6615 25.403 64.3383 25.8379 65.0834 26.1286C65.8286 26.4194 66.6265 26.5598 67.429 26.5416C71.187 26.5416 73.617 24.0681 73.617 20.7612Z" fill="#FFA137"/>
<path d="M29.2898 26.7015V18.621C29.2898 12.6207 23.4646 9.28711 17.8311 9.28711C14.0731 9.28711 10.3013 10.2738 7.97396 13.8008L11.732 16.9676C14.2988 13.634 21.726 13.4407 23.1907 18.1276H16.2703C11.4787 18.1276 6.82397 19.781 6.82397 24.648C6.82397 29.6483 11.4102 31.6551 15.9486 31.7018C18.9263 31.7018 22.1092 30.5884 23.6493 28.2682L24.2039 31.2551H29.5157L29.2898 26.7015ZM23.0471 21.5412C22.1092 24.7747 18.6593 27.4282 15.0245 27.9549C14.4832 28.0334 13.9354 28.0624 13.3885 28.0416C13.3588 28.0409 13.3299 28.0317 13.3055 28.015C13.2812 27.9985 13.2624 27.9752 13.2516 27.9483L11.376 23.208C11.3674 23.1879 11.3636 23.1662 11.3651 23.1445C11.3666 23.1227 11.3732 23.1017 11.3845 23.0829C11.3958 23.0641 11.4114 23.0481 11.4302 23.0364C11.4489 23.0245 11.4702 23.017 11.4924 23.0146L22.8759 21.3745C22.8989 21.3724 22.9221 21.3753 22.9438 21.383C22.9655 21.3906 22.9853 21.4029 23.0015 21.4187C23.0179 21.4347 23.0304 21.4539 23.0383 21.4751C23.0461 21.4962 23.0491 21.5188 23.0471 21.5412Z" fill="#FFA137"/>
<path d="M102.771 26.7015V18.621C102.771 12.6207 96.9452 9.28711 91.3117 9.28711C87.5469 9.28711 83.782 10.2738 81.4546 13.8008L85.2126 16.9676C87.7796 13.634 95.2066 13.4407 96.6715 18.1276H89.7509C84.9594 18.1276 80.3046 19.781 80.3046 24.648C80.3046 29.6483 84.8908 31.6551 89.4292 31.7018C92.4069 31.7018 95.59 30.5884 97.1301 28.2682L97.6777 31.2551H102.996L102.771 26.7015ZM96.562 21.5412C95.6241 24.7747 92.1742 27.4282 88.5393 27.9549C87.9981 28.0333 87.4503 28.0623 86.9034 28.0416C86.8736 28.0409 86.8447 28.0317 86.8205 28.015C86.7961 27.9985 86.7772 27.9752 86.7665 27.9483L84.8567 23.208C84.848 23.1879 84.8444 23.1662 84.8458 23.1445C84.8472 23.1227 84.8538 23.1017 84.8652 23.0829C84.8765 23.0641 84.8921 23.0481 84.9109 23.0364C84.9296 23.0245 84.9509 23.017 84.9731 23.0146L96.3565 21.3745C96.382 21.3663 96.4091 21.3646 96.4354 21.3695C96.4617 21.3743 96.4862 21.3856 96.5068 21.4022C96.5273 21.419 96.5431 21.4405 96.5529 21.4648C96.5625 21.4891 96.5656 21.5154 96.562 21.5412Z" fill="#FFA137"/>
</svg>
