<svg width="28" height="28" viewBox="0 0 28 28" fill="none" xmlns="http://www.w3.org/2000/svg">
<g clip-path="url(#clip0_5197_162)">
<path d="M4.66663 4.32835V23.6717C4.66667 23.815 4.70444 23.9558 4.77613 24.0799C4.84783 24.204 4.95093 24.3071 5.07507 24.3787C5.19921 24.4504 5.34002 24.4881 5.48336 24.4881C5.62669 24.4881 5.7675 24.4503 5.89163 24.3787L22.9506 14.5553C23.0483 14.4991 23.1294 14.418 23.1858 14.3204C23.2421 14.2229 23.2718 14.1121 23.2718 13.9994C23.2718 13.8867 23.2421 13.776 23.1858 13.6784C23.1294 13.5808 23.0483 13.4998 22.9506 13.4435L5.89163 3.62135C5.76741 3.54963 5.6265 3.51189 5.48306 3.51193C5.33963 3.51197 5.19874 3.54979 5.07456 3.62157C4.95039 3.69336 4.84731 3.79658 4.7757 3.92086C4.70408 4.04513 4.66647 4.18608 4.66663 4.32951V4.32835Z" fill="white" stroke="#FB8B19" stroke-linecap="round" stroke-linejoin="round"/>
<path d="M17.5 10.5L5.25 23.9167" stroke="#FB8B19" stroke-linecap="round" stroke-linejoin="round"/>
<path d="M5.25 4.08334L17.5 17.5" stroke="#FB8B19" stroke-linecap="round" stroke-linejoin="round"/>
</g>
<defs>
<clipPath id="clip0_5197_162">
<rect width="28" height="28" fill="white"/>
</clipPath>
</defs>
</svg>
